HIERARCHY
ROOT Hips
{
	OFFSET 0.000000 0.000000 0.000000
	CHANNELS 6 Xposition Yposition Zposition Xrotation Yrotation Zrotation
	JOINT Chest
	{
		OFFSET 0.000000 0.009282 11.569106
		CHANNELS 3 Xrotation Yrotation Zrotation
		JOINT Chest2
		{
			OFFSET 0.000000 -0.016863 9.269641
			CHANNELS 3 Xrotation Yrotation Zrotation
			JOINT Chest3
			{
				OFFSET 0.000000 0.000000 8.374491
				CHANNELS 3 Xrotation Yrotation Zrotation
				JOINT Chest4
				{
					OFFSET 0.000000 0.000000 8.374493
					CHANNELS 3 Xrotation Yrotation Zrotation
					JOINT Neck
					{
						OFFSET 0.000000 -0.000001 12.152554
						CHANNELS 3 Xrotation Yrotation Zrotation
						JOINT Head
						{
							OFFSET 0.000000 -0.040100 7.802319
							CHANNELS 3 Xrotation Yrotation Zrotation
							End Site
							{
								OFFSET 0.000000 -0.020946 14.853096
							}
						}
					}
					JOINT RightCollar
					{
						OFFSET -2.894404 0.000000 6.791374
						CHANNELS 3 Xrotation Yrotation Zrotation
						JOINT RightShoulder
						{
							OFFSET -13.574684 0.000000 0.000000
							CHANNELS 3 Xrotation Yrotation Zrotation
							JOINT RightElbow
							{
								OFFSET -23.923903 0.000000 0.000000
								CHANNELS 3 Xrotation Yrotation Zrotation
								JOINT RightWrist
								{
									OFFSET -19.846718 -0.012765 0.000000
									CHANNELS 3 Xrotation Yrotation Zrotation
									End Site
									{
										OFFSET -14.973145 0.000000 0.000000
									}
								}
							}
						}
					}
					JOINT LeftCollar
					{
						OFFSET 2.894404 0.000000 6.791374
						CHANNELS 3 Xrotation Yrotation Zrotation
						JOINT LeftShoulder
						{
							OFFSET 13.574684 0.000000 0.000000
							CHANNELS 3 Xrotation Yrotation Zrotation
							JOINT LeftElbow
							{
								OFFSET 23.923903 0.000000 0.000000
								CHANNELS 3 Xrotation Yrotation Zrotation
								JOINT LeftWrist
								{
									OFFSET 19.846718 -0.012765 0.000000
									CHANNELS 3 Xrotation Yrotation Zrotation
									End Site
									{
										OFFSET 14.973145 0.000000 0.000000
									}
								}
							}
						}
					}
				}
			}
		}
	}
	JOINT RightHip
	{
		OFFSET -9.469263 -0.004642 0.045487
		CHANNELS 3 Xrotation Yrotation Zrotation
		JOINT RightKnee
		{
			OFFSET 0.000000 -0.002666 -40.478676
			CHANNELS 3 Xrotation Yrotation Zrotation
			JOINT RightAnkle
			{
				OFFSET 0.000000 -0.049110 -35.224068
				CHANNELS 3 Xrotation Yrotation Zrotation
				JOINT RightToe
				{
					OFFSET 0.000000 -12.539530 -6.151390
					CHANNELS 3 Xrotation Yrotation Zrotation
					End Site
					{
						OFFSET 0.000000 -5.044995 -1.291870
					}
				}
			}
		}
	}
	JOINT LeftHip
	{
		OFFSET 9.469263 -0.004642 0.045487
		CHANNELS 3 Xrotation Yrotation Zrotation
		JOINT LeftKnee
		{
			OFFSET 0.000000 -0.002666 -40.478676
			CHANNELS 3 Xrotation Yrotation Zrotation
			JOINT LeftAnkle
			{
				OFFSET 0.000000 -0.049110 -35.224068
				CHANNELS 3 Xrotation Yrotation Zrotation
				JOINT LeftToe
				{
					OFFSET 0.000000 -12.539530 -6.151390
					CHANNELS 3 Xrotation Yrotation Zrotation
					End Site
					{
						OFFSET 0.000000 -5.044995 -1.291870
					}
				}
			}
		}
	}
}
MOTION
Frames: 11
Frame Time: 0.016667
-13.059671 -5.864618 82.923851 2.060259 5.469684 -107.265792 0.055696 -9.913343 -4.753370 0.122403 -4.406904 -2.128463 0.122403 -4.406908 -2.128460 0.107136 -3.304803 -1.596446 16.646925 6.417563 16.163358 -5.136476 6.112182 31.690090 -6.421116 -6.823941 -7.221497 -60.271973 -46.332028 -34.052274 -52.112653 -37.373590 25.642572 -35.997303 -0.295203 15.561164 -0.573761 7.149883 -10.993539 -75.263241 44.158191 3.379428 -51.129980 34.116177 -26.319751 -58.594902 -28.856272 -33.287378 10.974863 2.901279 1.862317 2.476888 0.106932 0.405921 -6.894322 -2.012351 -2.696163 0.016423 0.005064 -0.010910 11.572258 3.675656 1.462943 0.122296 -0.268948 3.961651 -5.103530 -0.617774 -1.085099 0.058693 0.023416 0.013277 
-13.055805 -5.869970 82.920273 2.066376 5.499295 -107.292833 0.069951 -9.941941 -4.752567 0.128734 -4.418719 -2.127200 0.128735 -4.418720 -2.127201 0.111913 -3.313640 -1.595545 16.687824 6.440696 16.167089 -5.067100 6.161958 31.703307 -6.429038 -6.846440 -7.234100 -60.167936 -46.567639 -34.269648 -51.886119 -38.092774 26.484900 -34.679182 -2.866312 14.400767 -0.563048 7.144723 -11.021587 -75.364082 44.159198 3.468280 -51.226579 34.037940 -26.230829 -58.636812 -28.865759 -33.287296 10.988914 2.912710 1.865989 2.492494 0.107132 0.418446 -6.903347 -2.012608 -2.701987 0.019519 0.002113 -0.010991 11.593193 3.692186 1.446852 0.140003 -0.278442 3.984714 -5.120499 -0.629588 -1.072362 0.059514 0.027091 0.012660 
-13.052662 -5.880795 82.917152 2.067154 5.525171 -107.293973 0.067619 -9.976431 -4.755403 0.127857 -4.433089 -2.128130 0.127860 -4.433089 -2.128128 0.111311 -3.324422 -1.596227 16.747166 6.453488 16.160076 -4.962562 6.200918 31.692276 -6.436816 -6.857741 -7.184500 -60.555972 -46.575442 -34.801870 -51.760137 -39.013938 27.296248 -33.875874 -5.712888 13.495908 -0.555297 7.146291 -11.013690 -75.443449 44.228460 3.551049 -51.350298 33.957914 -26.115990 -58.691092 -28.830871 -33.255279 10.996760 2.927796 1.872792 2.517988 0.101175 0.424164 -6.915942 -2.005760 -2.717153 0.019049 -0.003666 -0.011556 11.609002 3.709069 1.445969 0.153558 -0.284890 3.986113 -5.132154 -0.643112 -1.082672 0.060066 0.028655 0.012813 
-13.052481 -5.893714 82.914963 2.060992 5.549753 -107.261072 0.053190 -10.010153 -4.765920 0.121380 -4.446903 -2.132718 0.121379 -4.446904 -2.132714 0.106537 -3.334807 -1.599618 16.814507 6.452940 16.144815 -4.840917 6.220446 31.660963 -6.413444 -6.857609 -7.122260 -61.253867 -46.359045 -35.416751 -51.642756 -39.962327 27.915489 -33.501060 -8.614406 12.901914 -0.560220 7.158651 -10.982969 -75.471603 44.352680 3.610592 -51.446047 33.876236 -26.032086 -58.820455 -28.868997 -33.258824 11.008860 2.948637 1.866217 2.541055 0.089422 0.421610 -6.926557 -1.994143 -2.737936 0.014570 -0.011791 -0.012071 11.621366 3.726336 1.451951 0.165372 -0.288550 3.967940 -5.137807 -0.653634 -1.111903 0.058422 0.025519 0.013923 
-13.055428 -5.910335 82.913864 2.052640 5.573249 -107.201369 0.035626 -10.035844 -4.783512 0.113797 -4.457997 -2.140978 0.113796 -4.457998 -2.140978 0.100949 -3.343151 -1.605753 16.871571 6.436508 16.125703 -4.734470 6.210306 31.617362 -6.395307 -6.804644 -7.136804 -61.864350 -46.216352 -35.804200 -51.718022 -40.722783 28.331179 -33.474422 -11.305332 12.538452 -0.570667 7.178339 -10.971253 -75.436270 44.462110 3.623370 -51.514728 33.823875 -25.986139 -59.061295 -28.998760 -33.347210 11.025213 2.970713 1.855214 2.563499 0.071895 0.400047 -6.933908 -1.978827 -2.761177 0.005229 -0.020841 -0.013335 11.634548 3.743130 1.452892 0.170233 -0.290494 3.939041 -5.135978 -0.664206 -1.132593 0.055290 0.019522 0.015304 
-13.059631 -5.930751 82.913338 2.045936 5.599551 -107.131831 0.023274 -10.053469 -4.804758 0.108862 -4.465940 -2.151812 0.108862 -4.465941 -2.151809 0.097359 -3.349121 -1.613836 16.909535 6.411843 16.107618 -4.660782 6.180630 31.573632 -6.370213 -6.724537 -7.195066 -62.255883 -46.217281 -35.928680 -52.119446 -41.303933 28.575749 -33.628593 -13.465154 12.340398 -0.572669 7.192748 -10.972149 -75.391369 44.533452 3.601916 -51.560227 33.774169 -25.934682 -59.237677 -29.132946 -33.412346 11.040559 2.996251 1.862056 2.595862 0.050327 0.358049 -6.941917 -1.963174 -2.774012 -0.006598 -0.030446 -0.014591 11.650807 3.758184 1.443052 0.175106 -0.292112 3.917058 -5.131895 -0.671869 -1.168713 0.051880 0.011467 0.016463 
-13.064399 -5.951921 82.913010 2.043615 5.629802 -107.065524 0.023263 -10.063429 -4.823729 0.109208 -4.470253 -2.161786 0.109206 -4.470253 -2.161785 0.097707 -3.352357 -1.621315 16.924116 6.383725 16.091232 -4.628850 6.138793 31.532893 -6.314932 -6.665974 -7.197183 -62.614147 -46.151458 -35.916748 -52.747034 -41.656327 28.598692 -33.818780 -14.984146 12.354226 -0.590908 7.194046 -10.956538 -75.332957 44.587103 3.560981 -51.557051 33.712519 -25.873959 -59.325439 -29.170959 -33.397306 11.061311 3.017152 1.877446 2.627859 0.029743 0.319621 -6.947505 -1.943777 -2.804208 -0.018529 -0.039641 -0.015197 11.671227 3.773899 1.415596 0.181840 -0.296396 3.911041 -5.128948 -0.676902 -1.192950 0.049383 0.002213 0.018051 
-13.067359 -5.974145 82.912750 2.044292 5.659456 -107.011442 0.031414 -10.067297 -4.840350 0.113372 -4.472262 -2.170628 0.113371 -4.472259 -2.170626 0.100899 -3.353847 -1.627975 16.922530 6.356606 16.080364 -4.626146 6.093228 31.503384 -6.258583 -6.635854 -7.151245 -63.026274 -45.997605 -35.825725 -53.415788 -41.715012 28.444897 -34.084140 -15.877145 12.684238 -0.606083 7.184438 -10.938169 -75.256595 44.612794 3.507625 -51.503776 33.671781 -25.841240 -59.376166 -29.151152 -33.335486 11.077839 3.034634 1.898182 2.661908 0.016043 0.280467 -6.951326 -1.930219 -2.841378 -0.028160 -0.046333 -0.015789 11.689026 3.786275 1.387896 0.194794 -0.297704 3.903332 -5.129934 -0.683165 -1.212446 0.047923 -0.005364 0.018870 
-13.069280 -5.992847 82.912437 2.047878 5.684165 -106.974942 0.041553 -10.071262 -4.854101 0.117962 -4.474133 -2.177573 0.117960 -4.474135 -2.177574 0.104401 -3.355236 -1.633216 16.915776 6.335417 16.073144 -4.633982 6.055971 31.482900 -6.231848 -6.586769 -7.134424 -63.456713 -45.810400 -35.729307 -54.011763 -41.540135 28.150251 -34.744715 -16.090252 13.337615 -0.617929 7.186332 -10.913621 -75.133665 44.618542 3.427607 -51.445067 33.677648 -25.846220 -59.443177 -29.132738 -33.263960 11.088150 3.048239 1.908110 2.694753 0.003831 0.248962 -6.952476 -1.916141 -2.856111 -0.035629 -0.051909 -0.015691 11.703085 3.796364 1.361165 0.209321 -0.298718 3.903646 -5.133471 -0.690658 -1.222799 0.046929 -0.009870 0.019786 
-13.068743 -6.008704 82.912376 2.053405 5.700858 -106.954745 0.053138 -10.070946 -4.864442 0.123385 -4.474480 -2.182874 0.123385 -4.474484 -2.182875 0.108503 -3.355475 -1.637228 16.900793 6.320879 16.067619 -4.658376 6.028195 31.468355 -6.213117 -6.550851 -7.123708 -63.832523 -45.612376 -35.596214 -54.669702 -41.237148 27.675880 -35.860136 -15.565897 14.143570 -0.619773 7.182495 -10.892538 -75.025161 44.613098 3.343716 -51.387130 33.704726 -25.873055 -59.533711 -29.069411 -33.173587 11.087105 3.057184 1.903897 2.728113 -0.002155 0.238613 -6.951424 -1.906338 -2.849332 -0.041297 -0.054789 -0.015661 11.709384 3.802993 1.339261 0.225561 -0.300499 3.917953 -5.138846 -0.695013 -1.234198 0.046336 -0.013014 0.020038 
-13.067772 -6.018377 82.912674 2.064285 5.711558 -106.960469 0.066192 -10.069552 -4.868869 0.129010 -4.474247 -2.185144 0.129011 -4.474246 -2.185141 0.112735 -3.355276 -1.638969 16.883990 6.312205 16.065640 -4.687168 6.009390 31.462443 -6.198863 -6.530623 -7.107519 -64.121283 -45.423633 -35.422816 -55.368758 -40.823829 27.026700 -37.192757 -14.454239 15.203197 -0.642680 7.193898 -10.868288 -74.933322 44.604151 3.269101 -51.313729 33.696257 -25.911403 -59.505025 -28.924308 -32.999086 11.083759 3.057963 1.897499 2.750125 -0.002150 0.249137 -6.943528 -1.898892 -2.826495 -0.045132 -0.054411 -0.015308 11.717729 3.803421 1.338574 0.233316 -0.300114 3.931224 -5.144197 -0.698953 -1.238877 0.046619 -0.014196 0.020682 
